<?xml version="1.0" standalone="no"?>
<!DOCTYPE svg PUBLIC "-//W3C//DTD SVG 20010904//EN"
 "http://www.w3.org/TR/2001/REC-SVG-20010904/DTD/svg10.dtd">
<svg version="1.0" xmlns="http://www.w3.org/2000/svg"
 width="16.000000pt" height="16.000000pt" viewBox="0 0 16.000000 16.000000"
 preserveAspectRatio="xMidYMid meet">
<metadata>
Created by potrace 1.11, written by Peter Selinger 2001-2013
</metadata>
<g transform="translate(0.000000,16.000000) scale(0.001333,-0.001333)"
fill="#000000" stroke="none">
<path d="M3992 11388 c-11 -46 -44 -168 -72 -273 -28 -104 -58 -215 -66 -245
-8 -30 -16 -62 -19 -70 -2 -8 -15 -60 -30 -115 -14 -55 -30 -113 -35 -130 -5
-16 -11 -41 -14 -55 -3 -14 -23 -90 -45 -170 -54 -198 -270 -1010 -276 -1035
-2 -11 -19 -76 -38 -145 -19 -69 -55 -204 -81 -300 -25 -96 -55 -206 -66 -245
-11 -38 -33 -122 -49 -185 -17 -63 -52 -198 -79 -300 -28 -102 -68 -255 -91
-340 -22 -85 -55 -207 -72 -270 -41 -151 -118 -440 -124 -465 -4 -17 -29 -109
-100 -375 -12 -47 -26 -98 -30 -115 -10 -39 -6 -22 -65 -240 -28 -104 -53
-199 -56 -210 -2 -11 -18 -69 -34 -130 -17 -60 -32 -118 -35 -127 -2 -10 -18
-71 -36 -135 -29 -109 -44 -165 -53 -203 -2 -8 -14 -51 -25 -95 -64 -237 -81
-303 -89 -329 -9 -34 137 24 -1528 -604 -509 -192 -550 -209 -543 -227 23 -58
101 -261 103 -270 2 -5 8 -23 15 -40 6 -16 25 -66 42 -110 17 -44 35 -89 39
-100 5 -11 27 -67 49 -125 140 -368 334 -866 339 -872 4 -3 52 18 107 49 55
30 143 77 195 105 52 28 223 120 380 204 338 181 324 175 310 140 -5 -15 -12
-37 -14 -49 -3 -12 -21 -80 -40 -152 -45 -168 -257 -964 -335 -1255 -33 -124
-71 -268 -85 -320 -14 -52 -46 -171 -71 -265 -26 -93 -48 -180 -51 -192 -2
-12 -9 -34 -14 -48 -5 -14 -8 -25 -6 -25 2 0 -4 -28 -15 -62 -10 -35 -19 -70
-19 -79 0 -11 69 -46 230 -117 127 -56 235 -102 241 -102 5 0 35 39 65 88 31
48 74 113 95 145 21 32 39 62 39 67 0 6 3 10 8 10 4 0 12 9 17 19 6 11 53 86
105 166 52 81 102 158 110 171 15 23 255 395 415 641 119 182 266 410 429 663
80 124 150 232 156 240 6 8 63 97 128 197 64 101 225 349 357 553 132 204 300
464 374 578 301 467 292 454 357 487 32 16 181 95 329 176 149 80 315 169 370
198 158 85 228 122 260 141 17 10 80 43 140 75 160 85 214 114 243 133 l25 16
-6 -39 c-3 -22 -8 -51 -11 -65 -3 -14 -24 -114 -46 -223 -22 -109 -49 -237
-60 -285 -10 -48 -21 -100 -24 -117 -3 -16 -17 -86 -31 -155 -25 -119 -29
-140 -39 -192 -3 -13 -11 -55 -20 -93 -8 -39 -17 -82 -20 -95 -2 -14 -14 -69
-25 -124 -12 -54 -23 -108 -25 -120 -2 -11 -12 -57 -21 -101 -9 -44 -19 -90
-21 -102 -9 -48 -13 -72 -39 -193 -15 -69 -29 -138 -32 -155 -2 -16 -15 -79
-28 -140 -13 -60 -27 -126 -30 -145 -3 -19 -10 -51 -15 -70 -5 -19 -12 -51
-15 -70 -3 -19 -22 -111 -41 -205 -20 -93 -38 -181 -40 -195 -3 -14 -21 -98
-39 -187 -19 -90 -36 -173 -39 -186 -2 -12 -18 -92 -36 -177 -17 -85 -34 -164
-36 -175 -2 -11 -31 -153 -65 -315 -33 -162 -63 -304 -65 -315 -6 -30 -10 -49
-40 -193 -16 -79 -24 -136 -18 -141 11 -10 466 -213 468 -209 4 6 392 531 593
803 73 99 196 266 274 370 77 105 149 201 159 215 10 14 62 84 114 155 223
303 354 480 576 780 37 50 190 257 340 460 151 204 317 429 370 500 53 72 147
200 210 285 63 85 118 160 123 165 8 10 100 135 302 410 61 82 164 222 230
311 66 89 128 172 138 185 51 70 48 70 42 -6 -3 -38 -8 -86 -10 -105 -2 -19
-7 -73 -10 -120 -4 -47 -9 -98 -11 -115 -2 -16 -6 -66 -9 -110 -4 -44 -8 -96
-10 -115 -2 -19 -6 -75 -10 -125 -3 -49 -8 -101 -10 -115 -2 -14 -6 -56 -10
-95 -3 -38 -7 -95 -10 -125 -3 -30 -7 -84 -10 -120 -3 -36 -7 -90 -10 -120 -6
-63 -10 -106 -25 -280 -5 -69 -12 -150 -15 -180 -5 -53 -7 -75 -20 -220 -3
-36 -8 -90 -10 -120 -9 -110 -16 -186 -20 -230 -3 -25 -9 -101 -15 -170 -6
-69 -13 -145 -15 -170 -2 -25 -7 -79 -10 -120 -3 -41 -8 -91 -10 -110 -2 -19
-7 -71 -10 -115 -4 -44 -8 -98 -10 -120 -2 -22 -7 -78 -10 -125 -3 -47 -8 -96
-10 -110 -2 -14 -7 -65 -10 -115 -4 -49 -8 -101 -10 -115 -4 -24 -9 -87 -21
-230 -2 -36 -7 -83 -9 -105 -2 -22 -7 -76 -10 -120 -4 -44 -8 -93 -10 -110 -8
-72 -19 -224 -19 -274 l-1 -53 160 -75 c212 -99 241 -112 268 -122 21 -8 151
119 1447 1415 783 783 1422 1426 1419 1429 -2 2 -87 88 -189 189 l-184 185
-1163 -1162 c-640 -639 -1166 -1164 -1169 -1167 -3 -2 -3 9 0 25 2 17 7 66 11
110 3 44 8 98 10 120 3 22 7 74 10 115 3 41 7 91 9 110 4 33 13 142 21 235 2
22 7 76 10 120 3 44 7 94 9 110 2 17 7 68 11 115 4 47 8 101 10 120 2 19 6 72
10 117 3 46 8 91 9 100 2 10 7 63 10 118 4 55 9 111 11 125 2 14 6 61 9 105 4
44 8 96 11 115 2 19 7 71 10 115 3 44 8 100 10 125 2 25 7 77 10 116 3 40 7
87 9 105 3 19 7 70 10 114 4 44 8 100 11 125 3 25 7 77 10 115 3 39 7 90 10
115 6 59 13 148 20 235 4 39 8 90 10 115 3 25 7 79 10 120 4 41 8 86 10 100 2
14 7 66 10 115 4 50 8 106 10 125 2 19 7 69 10 110 4 41 8 91 10 110 2 19 6
73 10 120 4 47 8 99 10 115 1 17 6 66 9 110 4 44 9 96 11 115 2 19 7 76 11
125 3 50 8 104 10 120 2 17 6 71 10 120 l6 90 -214 79 c-117 44 -217 83 -222
88 -27 23 -50 2 -147 -130 -56 -75 -137 -184 -180 -242 -42 -58 -126 -171
-186 -252 -59 -80 -115 -156 -123 -168 -8 -13 -20 -28 -25 -34 -6 -6 -48 -63
-95 -126 -87 -119 -274 -372 -365 -495 -29 -38 -476 -644 -994 -1345 -518
-701 -947 -1282 -954 -1290 -7 -8 -28 -37 -47 -65 -19 -27 -38 -52 -41 -55 -3
-3 -48 -63 -99 -133 -51 -70 -97 -130 -101 -133 -4 -2 -3 10 1 28 5 18 12 47
14 63 3 17 19 93 35 170 17 77 32 154 35 170 3 17 8 44 11 60 3 17 10 46 15
65 5 19 11 52 14 74 4 21 8 41 10 45 2 3 7 22 10 41 3 19 15 78 26 130 12 52
23 106 25 120 2 14 18 93 35 175 17 83 37 182 45 220 8 39 25 123 39 187 14
64 28 129 30 144 3 15 10 50 16 78 6 28 12 60 14 71 5 26 30 144 68 325 17 80
31 152 33 160 1 8 7 40 13 70 16 73 16 72 52 250 17 85 35 171 40 190 5 19 11
49 14 65 3 17 7 42 10 58 4 15 8 37 10 50 3 12 11 54 20 92 8 39 17 82 19 95
3 14 24 115 47 225 22 110 49 240 59 288 11 49 23 92 27 97 11 10 71 43 329
180 44 24 132 71 195 105 63 34 156 84 205 110 50 27 133 72 185 100 52 28
140 76 195 105 55 29 123 65 150 80 28 15 75 41 105 57 30 17 96 52 145 78 50
26 142 76 205 110 63 34 151 82 195 105 44 24 107 57 140 75 49 27 517 278
935 503 47 25 103 55 125 67 22 12 74 40 115 62 172 92 238 127 285 153 28 15
111 60 185 100 74 40 167 89 205 110 39 21 102 54 140 75 39 21 158 85 265
143 107 57 233 125 280 150 47 24 99 53 115 62 17 10 75 41 130 70 55 29 123
65 150 80 28 15 91 49 140 75 50 26 104 56 120 65 17 10 80 44 140 76 178 94
208 115 103 73 -29 -12 -87 -34 -128 -49 -41 -15 -363 -136 -715 -269 -352
-133 -683 -258 -735 -278 -52 -19 -135 -51 -185 -70 -49 -19 -216 -82 -370
-139 -154 -58 -289 -109 -300 -114 -11 -5 -47 -19 -80 -31 -33 -11 -73 -27
-90 -34 -16 -8 -52 -21 -80 -30 -27 -9 -63 -22 -80 -29 -16 -8 -118 -46 -225
-86 -107 -39 -204 -75 -215 -80 -11 -5 -157 -61 -325 -124 -168 -63 -456 -171
-640 -241 -184 -69 -490 -185 -680 -256 -190 -72 -366 -138 -392 -149 -27 -10
-48 -17 -48 -15 0 2 18 88 39 192 22 103 42 199 44 213 6 31 85 416 93 450 3
14 7 34 9 45 2 11 6 34 10 50 15 71 106 512 110 535 3 14 21 102 40 195 19 94
47 226 61 293 14 68 23 126 20 129 -3 3 -65 30 -138 59 -73 30 -142 58 -153
63 -11 5 -58 24 -103 43 l-84 33 -16 -22 c-10 -12 -48 -71 -87 -133 -38 -61
-109 -170 -156 -243 -82 -126 -789 -1219 -891 -1377 -26 -41 -52 -82 -58 -90
-25 -37 -122 -188 -200 -309 -121 -187 -211 -327 -305 -471 -99 -152 -155
-239 -223 -346 -49 -76 -56 -83 -110 -103 -63 -25 -581 -221 -677 -256 -205
-76 -603 -227 -620 -234 -43 -19 -159 -61 -162 -58 -1 2 61 239 138 528 77
288 154 576 170 639 17 63 59 221 94 350 67 252 205 770 236 885 10 39 59 223
109 410 50 187 93 347 95 355 4 20 160 607 184 695 29 105 175 651 266 995 14
52 46 172 71 265 25 94 49 179 51 190 3 11 48 179 100 374 51 194 92 355 91
356 -5 5 -491 135 -504 135 -6 0 -20 -37 -32 -82z m2077 -4099 c-16 -79 -34
-164 -39 -189 -5 -25 -12 -56 -15 -70 -2 -14 -14 -72 -26 -130 -11 -58 -22
-112 -24 -120 -2 -8 -20 -94 -40 -190 -20 -96 -40 -178 -43 -181 -7 -6 -520
-202 -575 -219 -31 -10 -31 -12 17 60 17 26 37 55 43 65 28 44 142 221 256
397 67 103 200 309 296 458 96 148 176 268 178 267 1 -2 -11 -68 -28 -148z
m-2825 -3271 c-13 -22 -91 -143 -150 -235 -32 -48 -91 -140 -132 -203 -41 -63
-108 -167 -149 -230 -99 -153 -285 -442 -298 -463 -31 -49 -366 -565 -379
-582 -9 -13 -14 -15 -12 -5 3 18 3 16 88 335 38 143 71 267 73 275 2 8 44 168
94 355 100 371 88 348 189 400 31 16 91 48 132 71 41 22 109 59 150 81 202
107 299 159 345 185 58 32 59 32 49 16z"/>
<path d="M9133 10084 c-181 -31 -330 -108 -457 -239 -158 -162 -238 -355 -239
-580 -2 -387 279 -731 660 -810 378 -78 758 114 923 467 87 186 98 434 28 623
-140 377 -528 606 -915 539z"/>
</g>
</svg>
